<?xml version="1.0" encoding="UTF-8"?>
<svg version="1.1" xmlns="http://www.w3.org/2000/svg" width="178" height="178">
<path d="M0 0 C7.26 0 14.52 0 22 0 C26.29 1.32 30.58 2.64 35 4 C38.3 5.98 41.6 7.96 45 10 C49.455 13.96 49.455 13.96 54 18 C63.08673799 15.2739786 72.0540082 12.15740887 81 9 C81.99 9 82.98 9 84 9 C83.67 12.63 83.34 16.26 83 20 C80.03 36.17 77.06 52.34 74 69 C72.68 69 71.36 69 70 69 C69.34 68.67 68.68 68.34 68 68 C66.68 72.29 65.36 76.58 64 81 C62.02 84.3 60.04 87.6 58 91 C55.03 94.3 52.06 97.6 49 101 C45.7 103.31 42.4 105.62 39 108 C34.71 109.65 30.42 111.3 26 113 C24.68 113.33 23.36 113.66 22 114 C14.74 114 7.48 114 0 114 C-4.29 112.68 -8.58 111.36 -13 110 C-16.3 108.02 -19.6 106.04 -23 104 C-26.3 101.03 -29.6 98.06 -33 95 C-34.98 92.36 -36.96 89.72 -39 87 C-39 86.34 -39 85.68 -39 85 C-42.3 85 -45.6 85 -49 85 C-51.97 83.68 -54.94 82.36 -58 81 C-60.64 78.03 -63.28 75.06 -66 72 C-66.99 69.03 -66.99 69.03 -68 66 C-68 61.38 -68 56.76 -68 52 C-66.68 49.03 -65.36 46.06 -64 43 C-61.36 40.69 -58.72 38.38 -56 36 C-53.69 35.01 -51.38 34.02 -49 33 C-46.36 33 -43.72 33 -41 33 C-40.34 31.02 -39.68 29.04 -39 27 C-36.36 23.7 -33.72 20.4 -31 17 C-28.03 14.36 -25.06 11.72 -22 9 C-17.38 6.69 -12.76 4.38 -8 2 C-5.36 1.34 -2.72 0.68 0 0 Z " fill="#165DFE" transform="translate(80,31)"/>
<path d="M0 0 C4.29 0 8.58 0 13 0 C17.29 1.65 21.58 3.3 26 5 C29.3 7.97 32.6 10.94 36 14 C37.98 17.3 39.96 20.6 42 24 C42.99 28.95 42.99 28.95 44 34 C44 37.63 44 41.26 44 45 C42.35 49.29 40.7 53.58 39 58 C36.03 61.3 33.06 64.6 30 68 C27.36 69.65 24.72 71.3 22 73 C18.37 73.99 14.74 74.98 11 76 C6.71 76 2.42 76 -2 76 C-5.96 74.35 -9.92 72.7 -14 71 C-17.3 68.03 -20.6 65.06 -24 62 C-24.99 60.35 -25.98 58.7 -27 57 C-23.37 55.02 -19.74 53.04 -16 51 C-14.02 48.69 -12.04 46.38 -10 44 C-9.01 41.36 -8.02 38.72 -7 36 C-7 32.37 -7 28.74 -7 25 C-8.65 21.7 -10.3 18.4 -12 15 C-14.31 13.02 -16.62 11.04 -19 9 C-17.35 7.68 -15.7 6.36 -14 5 C-11.03 3.68 -8.06 2.36 -5 1 C-3.35 0.67 -1.7 0.34 0 0 Z " fill="#2B74F3" transform="translate(70,59)"/>
<path d="M0 0 C4.29 0 8.58 0 13 0 C16.3 1.65 19.6 3.3 23 5 C25.31 7.64 27.62 10.28 30 13 C30.99 15.31 31.98 17.62 33 20 C33 23.63 33 27.26 33 31 C31.02 35.95 31.02 35.95 29 41 C26.69 43.31 24.38 45.62 22 48 C19.03 49.32 16.06 50.64 13 52 C8.71 52 4.42 52 0 52 C-4.455 50.02 -4.455 50.02 -9 48 C-11.64 45.03 -14.28 42.06 -17 39 C-17.66 37.02 -18.32 35.04 -19 33 C-19 28.38 -19 23.76 -19 19 C-17.02 14.545 -17.02 14.545 -15 10 C-11.04 6.535 -11.04 6.535 -7 3 C-4.69 2.01 -2.38 1.02 0 0 Z " fill="#1BB2C4" transform="translate(31,64)"/>
<path d="M0 0 C0.99 0 1.98 0 3 0 C2.67 3.63 2.34 7.26 2 11 C-0.97 27.17 -3.94 43.34 -7 60 C-8.32 60 -9.64 60 -11 60 C-13.97 57.03 -16.94 54.06 -20 51 C-25.445 46.545 -25.445 46.545 -31 42 C-34.63 38.7 -38.26 35.4 -42 32 C-45.63 29.03 -49.26 26.06 -53 23 C-53.33 22.01 -53.66 21.02 -54 20 C-52.87207031 19.5875 -51.74414062 19.175 -50.58203125 18.75 C-38.34974599 14.26548533 -26.1661703 9.6606722 -14 5 C-9.38 3.35 -4.76 1.7 0 0 Z " fill="#139AD3" transform="translate(161,40)"/>
<path d="M0 0 C2.64 0 5.28 0 8 0 C6.68 4.62 5.36 9.24 4 14 C4 20.27 4 26.54 4 33 C6.9264709 42.52356351 6.9264709 42.52356351 10 52 C6.7 52 3.4 52 0 52 C-4.455 50.02 -4.455 50.02 -9 48 C-11.64 45.03 -14.28 42.06 -17 39 C-17.66 37.02 -18.32 35.04 -19 33 C-19 28.38 -19 23.76 -19 19 C-17.02 14.545 -17.02 14.545 -15 10 C-11.04 6.535 -11.04 6.535 -7 3 C-4.69 2.01 -2.38 1.02 0 0 Z " fill="#12D1AC" transform="translate(31,64)"/>
<path d="M0 0 C0.99 0 1.98 0 3 0 C2.67 3.63 2.34 7.26 2 11 C-0.97 27.17 -3.94 43.34 -7 60 C-8.32 60 -9.64 60 -11 60 C-11.66 59.34 -12.32 58.68 -13 58 C-13.33 51.4 -13.66 44.8 -14 38 C-15.32 33.71 -16.64 29.42 -18 25 C-21.465 19.06 -21.465 19.06 -25 13 C-25.66 12.01 -26.32 11.02 -27 10 C-9 3 -9 3 0 0 Z " fill="#12D1AC" transform="translate(161,40)"/>
<path d="M0 0 C2.31 0.33 4.62 0.66 7 1 C9.475 1.99 9.475 1.99 12 3 C11.34 4.32 10.68 5.64 10 7 C8.02 9.64 6.04 12.28 4 15 C2.68 18.3 1.36 21.6 0 25 C0 28.96 0 32.92 0 37 C0.99 41.62 1.98 46.24 3 51 C2.34 51 1.68 51 1 51 C-0.65 46.71 -2.3 42.42 -4 38 C-4.33 36.35 -4.66 34.7 -5 33 C-5 26.73 -5 20.46 -5 14 C-3.68 9.71 -2.36 5.42 -1 1 C-0.67 0.67 -0.34 0.34 0 0 Z " fill="#13ABC6" transform="translate(39,64)"/>
</svg>
