<svg xmlns="http://www.w3.org/2000/svg" width="638" height="178"><path fill="#165DFE" d="M124.734375 40.33203125c2.99441113 2.20450612 5.52575679 4.76176466 7.98828125 7.54296875 4.45124785 2.19890117 9.27174347-.19591811 13.73754883-1.70800781 2.48486294-.89911996 4.95124521-1.83610382 7.41479492-2.79199219 1.66233861-.64249897 3.32633859-1.28072058 4.9921875-1.9140625l2.19091797-.85009766C163 40 163 40 166 40c-.50857404 11.82434644-2.88772372 23.38248047-5 35-.37287425 2.07934135-.7452739 4.15876786-1.1171875 6.23828125-.35633984 1.98315041-.71309561 3.96622613-1.0703125 5.94921875l-.50512695 2.80615234-.4753418 2.61181641-.41479492 2.28588867C157.01025217 96.94818725 156.52687222 98.97089593 156 101l-5-2-1.0625 3.625C144.2529226 119.31198528 135.113015 132.88683633 119 141c-14.6753268 6.23749222-32.06440271 7.92281069-47.25390625 2.25390625C61.64377137 138.64103927 52.04848064 132.202501 46.1875 122.5625c-1.93804353-2.80739448-2.83754288-3.4693296-6.1953125-4.36328125-2.28633805-.29946341-4.57716594-.56644129-6.87109375-.80078125-7.05284042-.90036261-11.07190068-5.03848012-15.640625-10.203125C12.96196598 100.49505245 13.31962488 92.76325459 14 85c1.68272311-7.26339977 5.97025699-11.82904995 12-16 3.49977655-2.03405817 6.45542385-2.99044603 10.5625-3.0625 3.4684589-.5696161 3.4684589-.5696161 4.89453125-2.8671875.98245075-1.73755753 1.94609835-3.48583028 2.89453125-5.2421875 7.92064731-13.58897785 20.77792705-21.10960682 35.53198242-25.37231445 15.37957896-3.31222447 31.66932956-.39410785 44.85083008 7.8762207Z"/><path fill="#2B74F3" d="M96 65c3.01997358 1.69842108 5.49082791 3.61822517 8 6l1.86328125 1.7421875C112.88986778 79.99446739 116.24125716 88.37721479 116.625 98.4375c-.45787661 11.48213642-4.2666729 20.27919369-12.30078125 28.47265625-8.58259145 7.71712004-17.61222616 10.69253621-29.1171875 10.37109375-12.98618617-1.13886164-21.24891834-7.67851401-29.5546875-17.3046875L44 118c1.95807282-.9964415 3.90877853-1.96103698 5.9296875-2.82421875C56.58645827 112.22167213 60.92283812 107.95072091 63.875 101.25c2.25409381-7.03385899 2.13245495-13.8248101-.9375-20.5625C60.35071622 76.02682923 57.25071117 73.16719656 53 70c12.90857508-10.94422669 27.7649411-11.51485918 43-5Z"/><path fill="#165DFF" d="M407 53c15 0 15 0 18.10473633 2.40820312l1.72729492 3.37304688 1.00724792 1.83557129C428.88726156 62.55361414 429.84960737 64.51976184 430.8125 66.5c.66053126 1.26459854 1.32652524 2.52635932 1.99804688 3.78515625C434.88109419 74.18618743 436.94041984 78.09316752 439 82l10 16 1-45h13v72h-13c-2.89357592-3.14381209-4.16047935-5.25929878-6-9-1.10402632-1.89846108-2.24438662-3.77232153-3.38693237-5.64782715-2.13603313-3.51274777-4.2121919-7.06096212-6.30056763-10.60217285-.86239847-1.45847039-1.72502708-2.91680471-2.58789062-4.375-1.57981088-2.67005026-3.15806317-5.34101027-4.73510743-8.01269531C425.33655991 84.5687941 423.67000589 81.78334316 422 79l-1 46h-14V53Z"/><path fill="#19B0C4" d="M52.74609375 68.6796875C59.52357067 72.64985596 63.95389416 78.40882625 66 86c1.20716938 8.49996584-.48147753 16.00905237-5.4375 23.0390625-5.15958769 5.82934187-11.78970368 8.32324984-19.3984375 9.33984375-7.65120402.33219513-13.70484766-1.23579208-19.4296875-6.4375-6.89500925-7.35384979-8.22823164-13.48091685-8.0390625-23.46484375C14.31145327 81.44623829 16.67766882 76.92083261 21.8125 72.125c9.35402754-7.39740527 20.07013702-8.43238895 30.93359375-3.4453125Z"/><path fill="#165DFF" d="M260 51h13l1 26 6-5c5.35998941-1.94568551 10.75679589-1.07303373 15.984375.91015625C300.18800815 75.18305092 302.49078342 78.47235026 304 83c.08589303 1.39655459.11772715 2.79685777.11352539 4.19604492l-.00022888 2.54740906-.01564026 2.73701477-.00428772 2.81208801c-.00559916 2.96501382-.01815149 5.92995223-.03086853 8.89494324-.00501511 2.00976453-.009578 4.01953025-.01367188 6.02929688C304.03780021 115.14456032 304.02053617 120.07226737 304 125h-13l-.02832031-3.33300781c-.03990906-4.08553385-.10566973-8.17031538-.17919922-12.2553711-.02820444-1.7671542-.04942165-3.53443443-.06347656-5.30175781-.02143749-2.5424855-.06808894-5.08345666-.11962891-7.62548828l-.00372314-2.38995361c-.09602856-3.60602423-.29478524-5.68783629-2.51654053-8.59368897C284.56279573 82.96757103 282.26078642 83.52657929 278 84c-2.67431489 1.81163267-2.95920359 2.87761077-4 6-.15346953 2.65606301-.25717898 5.29095095-.31640625 7.94921875l-.06297302 2.34126282c-.06533111 2.46558323-.12430388 4.93127204-.18312073 7.39701843-.04320087 1.67253691-.08681566 3.34506319-.13085938 5.01757812C273.1996251 116.8032775 273.09831143 120.90158296 273 125h-13V51ZM247 57l2 2c-.33958595 3.43921093-1.97111183 5.58014276-4.0625 8.25l-1.66015625 2.140625L242 71l-1.42578125-1.05859375L238.6875 68.5625l-1.86328125-1.37109375C232.96925201 64.67370849 229.48573979 64.69588205 225 65c-3.82275771 1.32326228-5.51944963 2.21698642-7.64697266 5.68359375-1.49754747 3.67063963-1.74020277 6.30252857-1.75146484 10.25390625l-.01171875 3.9609375.01904297 2.04199219c.01607272 2.05438661.00011502 4.10680651-.01904297 6.16113281l.01171875 3.9609375.01025391 3.59765625C216.15357739 105.32134507 217.67992562 108.67992562 221 112c6.43763451 1.56527494 11.26909146 1.27480488 17-2l1.6875-1.8125L241 107c3.89549941.77909988 6.03723857 4.1261149 8.140625 7.26171875C250 116 250 116 249.625 118.1875c-5.31263977 5.92563667-10.85139551 7.66465684-18.625 8.8125-8.14830895.35963533-15.32462824-1.17757841-22-6-6.3654607-6.4182861-8.30849336-13.16804851-8.3359375-22.109375l-.02017212-2.3237915c-.01008379-1.61698018-.01481835-3.23400161-.01449585-4.85101319-.00435752-2.44505304-.04067608-4.88827529-.07861328-7.33300781-.0765717-10.45063665.32892816-19.39077418 7.94921875-27.3203125 11.37652184-8.91160877 26.85864715-7.50647264 38.5-.0625Z"/><path fill="#149AD3" d="M166 40c-.50857404 11.82434644-2.88772372 23.38248047-5 35-.37287425 2.07934135-.7452739 4.15876786-1.1171875 6.23828125-.35633984 1.98315041-.71309561 3.96622613-1.0703125 5.94921875l-.50512695 2.80615234-.4753418 2.61181641-.41479492 2.28588867C157.01025217 96.94818725 156.52687222 98.97089593 156 101c-4.50345267-1.41537084-6.74038762-3.65372142-10-7-6.16137467-5.79668271-12.50814106-11.31169616-19.0859375-16.62890625C123.57900786 74.65745009 120.2843687 71.89959871 117 69.125l-1.67333984-1.40795898C112.78535546 65.56649438 110.29885026 63.41059993 108 61c10.47035206-4.08533116 20.95013362-8.14604175 31.4375-12.1875l3.26123047-1.25927734C145.7961955 46.3608631 148.89683494 45.1774403 152 44l3.12548828-1.18994141 2.97216797-1.11083984 2.64477539-.9934082C163 40 163 40 166 40Z"/><path fill="#165DFF" d="M513.27734375 74.625C517.25475515 77.79971386 519.41880585 82.25641756 521 87v15h-32c1.31688387 7.54577051 1.31688387 7.54577051 6 12 6.49558716 1.84490049 10.94573218.6095982 17-2h3c4.0907544 4.99981093 4.0907544 4.99981093 3.8125 8.06640625-1.22459697 2.91430529-3.46068197 3.84773655-6.23828125 5.109375-9.322862 2.98501348-19.10390427 2.55937599-27.82421875-1.80078125-5.0678617-4.37678965-8.40796418-9.78342823-8.91113281-16.53808594-.04575161-2.52910606-.07411801-5.05742929-.08886719-7.58691406l-.0625-2.6328125c-.04287545-7.13876168 1.19515534-13.07890857 5.5625-18.9296875 8.33584001-8.1463891 22.0584635-8.63033456 32.02734375-3.0625ZM491 85c-2.46225016 3.09245003-2.46225016 3.09245003-2 8h20c-.41552905-5.90639109-.41552905-5.90639109-3.6875-8.875-5.46120433-3.5034141-9.19214568-2.96526574-14.3125.875ZM349 73.625c4.86458812 3.85113226 7.11252923 8.20233817 8 14.375.08217936 2.86956194.11655274 5.71339653.09765625 8.58203125l-.00428772 2.46720886c-.00557536 2.58779145-.01812329 5.17549481-.03086853 7.76325989-.00501819 1.75976437-.00958054 3.51953011-.01367188 5.27929688C357.03783181 116.39456494 357.02058421 120.69726756 357 125c-1.9780065.10740307-3.95763616.18531367-5.9375.25l-3.33984375.140625L345 125c-.87890625-2.015625-.87890625-2.015625-1-4l-1.625 1.875c-3.38997929 3.03313936-6.19860717 4.09309848-10.7734375 4.16015625C326.03523232 126.69248427 322.35324571 125.71618536 318 122c-3.98209476-4.53134921-4.2957077-8.6678101-4.2109375-14.5.42317509-5.01540842 2.52939736-8.08886286 6.2109375-11.3125 3.57640547-2.60779566 5.9216572-3.3157152 10.23046875-3.28515625l2.43164063.00976563L335.1875 92.9375l2.56054688.01367188C339.83206155 92.96294597 341.91603977 92.9808811 344 93c-.37311204-4.81871198-.37311204-4.81871198-2.5625-8.9375C337.95206328 82.54320707 334.70453791 82.4361108 331 83c-2.02237052.95394836-4.0282696 1.94535351-6 3-4.07173306-1.35724435-5.02572445-3.27081285-7-7 .52734375-2.0546875.52734375-2.0546875 2-4 8.94010734-4.44336678 19.80377361-5.875281 29-1.375ZM327 105c-1.3309316 3.39969811-1.3309316 3.39969811-1 7 1.75209236 2.73680006 1.75209236 2.73680006 5 4 4.62367241.40241554 7.92022546-.13091317 11.5625-3.0625 1.92808302-3.93999574 1.73263021-6.58432942 1.4375-10.9375-1.89510699-.08160748-3.79124504-.13946459-5.6875-.1875l-3.19921875-.10546875C331.5796832 102.03955302 329.78209551 102.82227353 327 105ZM527 73c13.2922952-1.36981668 13.2922952-1.36981668 17.19140625 1.7578125C545.72261001 77.11658592 546.86057221 79.4296629 548 82c1.29686535 2.35575683 2.64822819 4.67495249 4 7l1.44140625-3.5c5.28000279-11.590439 5.28000279-11.590439 9.45703125-13.2578125C567.3384265 71.57874087 571.60242526 72.16567752 576 73c-2.28629109 4.44021796-4.73892141 8.6862566-7.62890625 12.76171875l-1.39697266 1.99194336c-.93362004 1.32034091-1.88240046 2.63010399-2.84667968 3.92822266C562.61931272 93.74260164 562.61931272 93.74260164 561 97c1.05146685 3.56951015 2.84816885 6.59812388 4.78515625 9.7578125l1.60742187 2.64453125L569.0625 112.125c1.09775549 1.79261814 2.19292766 3.58682152 3.28515625 5.3828125l1.46899414 2.39501953C575 122 575 122 576 125c-13.43189018 1.21647307-13.43189018 1.21647307-16.93359375-1.5-1.25900652-2.11347979-2.15927139-4.21479218-3.06640625-6.5-.90969999-1.51702082-1.84662615-3.01811135-2.8125-4.5-.73079294-1.16564867-1.46024065-2.33214343-2.1875-3.5l-1.40625 3.5c-4.11077787 9.16728999-4.11077787 9.16728999-7.59375 12.5-5.14576865 1.95310172-10.71597533.93361908-16 0 .97868179-1.54197452 1.95799116-3.08355071 2.9375-4.625l1.90234375-3.01171875c1.52860924-2.37998654 3.07677719-4.73048226 4.6640625-7.0703125l1.25610352-1.87841797c.8172584-1.22065805 1.64439474-2.4347685 2.48193359-3.64160156 2.19364842-3.09346776 2.19364842-3.09346776 2.50952148-6.72094727-.81639778-2.22931235-1.830996-3.97719199-3.14990234-5.95043945l-1.453125-2.203125L535.625 87.625C532.44820713 82.8598107 529.42928334 78.20560716 527 73ZM586 57h13v16h10v11h-10c.11798944 3.96952899.24221799 7.93880781.37231445 11.90795898.04339778 1.35118249.08506925 2.70242155.125 4.05371094.05758507 1.93869709.12182853 3.87719284.1862793 5.81567383l.11108398 3.53881836C599.70076188 111.91779795 599.70076188 111.91779795 601 113c1.34747084.23075082 2.70377565.41153063 4.0625.5625L609 114v11c-2.20770805.08165496-4.41630425.13948488-6.625.1875l-3.7265625.10546875C594.62040196 124.96951836 592.36240639 124.22072972 589 122c-3.17542599-4.0956285-3.40431536-7.70179286-3.29296875-12.70703125l.01286316-2.19816589c.01671016-2.30282177.05434599-4.60474839.09260559-6.90730286.01505684-1.5670446.0287435-3.134103.04101562-4.70117188C585.88648269 91.65721043 585.93821008 87.82875666 586 84l-3.44140625.09765625L579 84c-1.86494255-3.10823758-1.06817531-7.45488384-1-11h8V57ZM373 57h13v16h10v11h-10c.11798944 3.96952899.24221799 7.93880781.37231445 11.90795898.04339778 1.35118249.08506925 2.70242155.125 4.05371094.05758507 1.93869709.12182853 3.87719284.1862793 5.81567383l.11108398 3.53881836C386.70076188 111.91779795 386.70076188 111.91779795 388 113c1.34747084.23075082 2.70377565.41153063 4.0625.5625L396 114v11c-2.20770805.08165496-4.41630425.13948488-6.625.1875l-3.7265625.10546875C381.62040196 124.96951836 379.36240639 124.22072972 376 122c-3.17542599-4.0956285-3.40431536-7.70179286-3.29296875-12.70703125l.01286316-2.19816589c.01671016-2.30282177.05434599-4.60474839.09260559-6.90730286.01505684-1.5670446.0287435-3.134103.04101562-4.70117188C372.88648269 91.65721043 372.93821008 87.82875666 373 84l-3.44140625.09765625L366 84c-1.86494255-3.10823758-1.06817531-7.45488384-1-11h8V57Z"/><path fill="#12D1AC" d="M40 66c-.31182069 1.41681634-.62448737 2.83344651-.9375 4.25l-.52734375 2.390625c-.32380542 1.42758008-.66959653 2.85074697-1.0559082 4.26269531C35.12677834 87.19522547 36.75809545 99.14285779 40 109l.8671875 2.73046875C41.55058627 113.82947927 42.2707647 115.91647057 43 118c-7.14496504.53699111-12.94497119.07654543-19-4-5.91919571-5.36904671-9.51785227-10.21776727-10.3359375-18.33203125-.09542446-8.50231943.27665521-15.16841723 6.13671875-21.6640625C25.94213713 68.26799911 31.39331836 65.47306031 40 66ZM166 40c-.50857404 11.82434644-2.88772372 23.38248047-5 35-.37287425 2.07934135-.7452739 4.15876786-1.1171875 6.23828125-.35633984 1.98315041-.71309561 3.96622613-1.0703125 5.94921875l-.50512695 2.80615234-.4753418 2.61181641-.41479492 2.28588867C157.01025217 96.94818725 156.52687222 98.97089593 156 101c-4.875-1.875-4.875-1.875-6-3-.095391-2.0604457-.18434712-4.12141505-.23876953-6.18334961-.38449439-13.3847336-3.03428077-23.76695186-10.17529297-35.25805664C138.25267747 54.40764469 137.11073056 52.26871985 136 50c3.78795106-1.4304204 7.57825448-2.8543979 11.37084961-4.27246094 1.28972497-.48326171 2.57879477-.96827575 3.8671875-1.45507812 1.85251247-.69960009 3.70759858-1.39237327 5.56274414-2.08496094l3.38012695-1.26953125C163 40 163 40 166 40Z"/></svg>